<svg width="1701" height="3650" viewBox="0 0 1701 3650" fill="none" xmlns="http://www.w3.org/2000/svg">
<g opacity="0.5">
<path d="M449.733 3096.35C450.022 3096.51 450.468 3096.47 450.729 3096.27C450.99 3096.07 450.967 3095.77 450.678 3095.61C450.389 3095.45 449.942 3095.48 449.681 3095.69C449.42 3095.89 449.443 3096.19 449.733 3096.35Z" fill="white"/>
<path d="M285.781 2992.29C286.111 2992.26 286.291 2991.98 286.184 2991.67C286.078 2991.35 285.724 2991.13 285.394 2991.16C285.064 2991.19 284.884 2991.47 284.991 2991.79C285.097 2992.1 285.451 2992.33 285.781 2992.29Z" fill="white"/>
<path d="M461.984 3203.2C462.314 3203.16 462.494 3202.88 462.387 3202.57C462.281 3202.25 461.927 3202.03 461.597 3202.06C461.267 3202.09 461.087 3202.38 461.194 3202.69C461.3 3203 461.654 3203.23 461.984 3203.2Z" fill="white"/>
<path d="M432.388 3260C432.718 3259.97 432.898 3259.69 432.791 3259.37C432.685 3259.06 432.331 3258.83 432.001 3258.87C431.671 3258.9 431.491 3259.18 431.598 3259.49C431.704 3259.81 432.058 3260.03 432.388 3260Z" fill="white"/>
<path d="M597.984 3066.2C598.314 3066.16 598.494 3065.88 598.387 3065.57C598.281 3065.25 597.927 3065.03 597.597 3065.06C597.267 3065.09 597.087 3065.38 597.194 3065.69C597.3 3066 597.654 3066.23 597.984 3066.2Z" fill="white"/>
<path d="M983.949 3523.81C983.969 3523.48 983.718 3523.19 983.387 3523.17C983.057 3523.14 982.772 3523.39 982.752 3523.72C982.732 3524.05 982.983 3524.34 983.314 3524.36C983.644 3524.39 983.928 3524.14 983.949 3523.81Z" fill="white"/>
<path d="M564.891 3201.63C564.997 3201.94 565.351 3202.17 565.681 3202.13C566.011 3202.1 566.191 3201.82 566.085 3201.51C565.978 3201.19 565.624 3200.96 565.294 3201C564.964 3201.03 564.784 3201.31 564.891 3201.63Z" fill="white"/>
<path d="M1265.01 3235.36C1265.12 3235.67 1265.47 3235.9 1265.8 3235.86C1266.13 3235.83 1266.31 3235.55 1266.2 3235.24C1266.1 3234.92 1265.74 3234.69 1265.41 3234.73C1265.08 3234.76 1264.9 3235.04 1265.01 3235.36Z" fill="white"/>
<path d="M1009.11 3093.5C1009.22 3093.81 1009.57 3094.04 1009.9 3094.01C1010.23 3093.97 1010.41 3093.69 1010.3 3093.38C1010.2 3093.06 1009.84 3092.84 1009.51 3092.87C1009.18 3092.9 1009 3093.18 1009.11 3093.5Z" fill="white"/>
<path d="M994.557 3082.9C994.663 3083.21 995.017 3083.44 995.347 3083.41C995.677 3083.37 995.857 3083.09 995.751 3082.78C995.644 3082.47 995.29 3082.24 994.96 3082.27C994.63 3082.3 994.45 3082.59 994.557 3082.9Z" fill="white"/>
<path d="M881.078 3181.04C881.184 3181.35 881.538 3181.58 881.868 3181.55C882.198 3181.51 882.378 3181.23 882.272 3180.92C882.165 3180.61 881.811 3180.38 881.481 3180.41C881.151 3180.45 880.971 3180.73 881.078 3181.04Z" fill="white"/>
<path d="M836.387 3433.57C836.28 3433.26 835.927 3433.03 835.597 3433.06C835.267 3433.1 835.087 3433.38 835.193 3433.69C835.3 3434 835.654 3434.23 835.984 3434.2C836.314 3434.16 836.494 3433.88 836.387 3433.57Z" fill="white"/>
<path d="M1017.66 3472.14C1017.55 3471.83 1017.2 3471.6 1016.87 3471.63C1016.54 3471.67 1016.36 3471.95 1016.47 3472.26C1016.57 3472.57 1016.93 3472.8 1017.26 3472.77C1017.59 3472.73 1017.77 3472.45 1017.66 3472.14Z" fill="white"/>
<path d="M1176.39 3464.57C1176.28 3464.26 1175.93 3464.03 1175.6 3464.06C1175.27 3464.1 1175.09 3464.38 1175.2 3464.69C1175.3 3465 1175.66 3465.23 1175.99 3465.2C1176.32 3465.16 1176.5 3464.88 1176.39 3464.57Z" fill="white"/>
<path d="M302.011 3226.18C301.695 3226.08 301.289 3226.22 301.103 3226.5C300.917 3226.77 301.022 3227.08 301.337 3227.18C301.652 3227.28 302.059 3227.14 302.245 3226.87C302.43 3226.59 302.326 3226.29 302.011 3226.18Z" fill="white"/>
<path d="M622.378 3458.36C622.063 3458.26 621.656 3458.4 621.47 3458.67C621.285 3458.95 621.389 3459.25 621.704 3459.35C622.02 3459.46 622.426 3459.32 622.612 3459.04C622.798 3458.77 622.693 3458.46 622.378 3458.36Z" fill="white"/>
<path d="M271.244 3245.39C270.928 3245.28 270.522 3245.42 270.336 3245.7C270.15 3245.97 270.255 3246.28 270.57 3246.38C270.886 3246.48 271.292 3246.34 271.478 3246.07C271.664 3245.79 271.559 3245.49 271.244 3245.39Z" fill="white"/>
<path d="M1574.88 3473.13C1574.57 3473.02 1574.16 3473.16 1573.98 3473.44C1573.79 3473.71 1573.89 3474.02 1574.21 3474.12C1574.52 3474.22 1574.93 3474.08 1575.12 3473.81C1575.3 3473.53 1575.2 3473.23 1574.88 3473.13Z" fill="white"/>
<path d="M343.244 3432.18C342.928 3432.08 342.522 3432.22 342.336 3432.5C342.15 3432.77 342.255 3433.08 342.57 3433.18C342.886 3433.28 343.292 3433.14 343.478 3432.87C343.664 3432.59 343.559 3432.29 343.244 3432.18Z" fill="white"/>
<path d="M1525.24 3285.18C1524.93 3285.08 1524.52 3285.22 1524.34 3285.5C1524.15 3285.77 1524.25 3286.08 1524.57 3286.18C1524.88 3286.28 1525.29 3286.14 1525.48 3285.87C1525.66 3285.59 1525.56 3285.29 1525.24 3285.18Z" fill="white"/>
<path d="M1161.65 3404.35C1161.34 3404.25 1160.93 3404.39 1160.75 3404.66C1160.56 3404.93 1160.66 3405.24 1160.98 3405.34C1161.29 3405.44 1161.7 3405.3 1161.89 3405.03C1162.07 3404.76 1161.97 3404.45 1161.65 3404.35Z" fill="white"/>
<path d="M129.244 3352.18C128.928 3352.08 128.522 3352.22 128.336 3352.5C128.15 3352.77 128.255 3353.08 128.57 3353.18C128.886 3353.28 129.292 3353.14 129.478 3352.87C129.664 3352.59 129.559 3352.29 129.244 3352.18Z" fill="white"/>
<path d="M1306.24 3182.18C1305.93 3182.08 1305.52 3182.22 1305.34 3182.5C1305.15 3182.77 1305.25 3183.08 1305.57 3183.18C1305.88 3183.28 1306.29 3183.14 1306.48 3182.87C1306.66 3182.59 1306.56 3182.29 1306.24 3182.18Z" fill="white"/>
<path d="M1393.19 3411.04C1392.88 3410.93 1392.47 3411.07 1392.29 3411.35C1392.1 3411.62 1392.2 3411.93 1392.52 3412.03C1392.83 3412.13 1393.24 3411.99 1393.43 3411.72C1393.61 3411.44 1393.51 3411.14 1393.19 3411.04Z" fill="white"/>
<path d="M651.828 3353.18C651.512 3353.08 651.106 3353.22 650.92 3353.5C650.734 3353.77 650.839 3354.08 651.154 3354.18C651.47 3354.28 651.876 3354.14 652.062 3353.87C652.247 3353.59 652.143 3353.29 651.828 3353.18Z" fill="white"/>
<path d="M717.244 3200.18C716.928 3200.08 716.522 3200.22 716.336 3200.5C716.15 3200.77 716.255 3201.08 716.57 3201.18C716.886 3201.28 717.292 3201.14 717.478 3200.87C717.664 3200.59 717.559 3200.29 717.244 3200.18Z" fill="white"/>
<path d="M1364.41 3181.93C1364.1 3181.82 1363.69 3181.96 1363.51 3182.24C1363.32 3182.51 1363.42 3182.82 1363.74 3182.92C1364.05 3183.02 1364.46 3182.88 1364.65 3182.61C1364.83 3182.33 1364.73 3182.03 1364.41 3181.93Z" fill="white"/>
<path d="M341.244 3279.18C340.928 3279.08 340.522 3279.22 340.336 3279.5C340.15 3279.77 340.255 3280.08 340.57 3280.18C340.886 3280.28 341.292 3280.14 341.478 3279.87C341.664 3279.59 341.559 3279.29 341.244 3279.18Z" fill="white"/>
<path d="M1107.64 3214.74C1107.33 3214.63 1106.92 3214.77 1106.74 3215.05C1106.55 3215.32 1106.65 3215.63 1106.97 3215.73C1107.28 3215.83 1107.69 3215.69 1107.88 3215.42C1108.06 3215.14 1107.96 3214.84 1107.64 3214.74Z" fill="white"/>
<path d="M1328.64 3387.97C1328.32 3388.06 1328.23 3388.35 1328.43 3388.61C1328.63 3388.87 1329.06 3389.01 1329.37 3388.92C1329.69 3388.82 1329.79 3388.53 1329.58 3388.27C1329.38 3388.01 1328.96 3387.87 1328.64 3387.97Z" fill="white"/>
<path d="M1347.35 3366.45C1347.03 3366.54 1346.94 3366.83 1347.14 3367.09C1347.34 3367.35 1347.77 3367.49 1348.08 3367.39C1348.4 3367.3 1348.5 3367.01 1348.29 3366.75C1348.09 3366.49 1347.67 3366.35 1347.35 3366.45Z" fill="white"/>
<path d="M1489.67 3111.63C1489.35 3111.72 1489.26 3112.01 1489.46 3112.27C1489.66 3112.53 1490.09 3112.67 1490.4 3112.58C1490.72 3112.48 1490.82 3112.19 1490.61 3111.93C1490.41 3111.67 1489.99 3111.53 1489.67 3111.63Z" fill="white"/>
<path d="M606.575 3367.71C606.258 3367.81 606.165 3368.09 606.368 3368.36C606.572 3368.62 606.994 3368.75 607.312 3368.66C607.629 3368.56 607.722 3368.28 607.519 3368.01C607.315 3367.75 606.893 3367.62 606.575 3367.71Z" fill="white"/>
</g>
<path d="M428.733 2366.35C429.022 2366.51 429.468 2366.47 429.729 2366.27C429.99 2366.07 429.967 2365.77 429.678 2365.61C429.389 2365.45 428.942 2365.48 428.681 2365.69C428.42 2365.89 428.443 2366.19 428.733 2366.35Z" fill="white"/>
<path d="M264.781 2262.29C265.111 2262.26 265.291 2261.98 265.184 2261.67C265.078 2261.35 264.724 2261.13 264.394 2261.16C264.064 2261.19 263.884 2261.47 263.991 2261.79C264.097 2262.1 264.451 2262.33 264.781 2262.29Z" fill="white"/>
<path d="M440.984 2473.2C441.314 2473.16 441.494 2472.88 441.387 2472.57C441.281 2472.25 440.927 2472.03 440.597 2472.06C440.267 2472.09 440.087 2472.38 440.194 2472.69C440.3 2473 440.654 2473.23 440.984 2473.2Z" fill="white"/>
<path d="M411.388 2530C411.718 2529.97 411.898 2529.69 411.791 2529.37C411.685 2529.06 411.331 2528.83 411.001 2528.87C410.671 2528.9 410.491 2529.18 410.598 2529.49C410.704 2529.81 411.058 2530.03 411.388 2530Z" fill="white"/>
<path d="M576.984 2336.2C577.314 2336.16 577.494 2335.88 577.387 2335.57C577.281 2335.25 576.927 2335.03 576.597 2335.06C576.267 2335.09 576.087 2335.38 576.194 2335.69C576.3 2336 576.654 2336.23 576.984 2336.2Z" fill="white"/>
<path d="M962.949 2793.81C962.969 2793.48 962.718 2793.19 962.387 2793.17C962.057 2793.14 961.772 2793.39 961.752 2793.72C961.732 2794.05 961.983 2794.34 962.314 2794.36C962.644 2794.39 962.928 2794.14 962.949 2793.81Z" fill="white"/>
<path d="M543.891 2471.63C543.997 2471.94 544.351 2472.17 544.681 2472.13C545.011 2472.1 545.191 2471.82 545.085 2471.51C544.978 2471.19 544.624 2470.96 544.294 2471C543.964 2471.03 543.784 2471.31 543.891 2471.63Z" fill="white"/>
<path d="M1244.01 2505.36C1244.12 2505.67 1244.47 2505.9 1244.8 2505.86C1245.13 2505.83 1245.31 2505.55 1245.2 2505.24C1245.1 2504.92 1244.74 2504.69 1244.41 2504.73C1244.08 2504.76 1243.9 2505.04 1244.01 2505.36Z" fill="white"/>
<path d="M988.111 2363.5C988.218 2363.81 988.571 2364.04 988.901 2364.01C989.231 2363.97 989.412 2363.69 989.305 2363.38C989.198 2363.06 988.844 2362.84 988.514 2362.87C988.184 2362.9 988.004 2363.18 988.111 2363.5Z" fill="white"/>
<path d="M973.557 2352.9C973.663 2353.21 974.017 2353.44 974.347 2353.41C974.677 2353.37 974.857 2353.09 974.751 2352.78C974.644 2352.47 974.29 2352.24 973.96 2352.27C973.63 2352.3 973.45 2352.59 973.557 2352.9Z" fill="white"/>
<path d="M860.078 2451.04C860.184 2451.35 860.538 2451.58 860.868 2451.55C861.198 2451.51 861.378 2451.23 861.272 2450.92C861.165 2450.61 860.811 2450.38 860.481 2450.41C860.151 2450.45 859.971 2450.73 860.078 2451.04Z" fill="white"/>
<path d="M815.387 2703.57C815.28 2703.26 814.927 2703.03 814.597 2703.06C814.267 2703.1 814.087 2703.38 814.193 2703.69C814.3 2704 814.654 2704.23 814.984 2704.2C815.314 2704.16 815.494 2703.88 815.387 2703.57Z" fill="white"/>
<path d="M996.66 2742.14C996.553 2741.83 996.2 2741.6 995.87 2741.63C995.54 2741.67 995.359 2741.95 995.466 2742.26C995.573 2742.57 995.927 2742.8 996.257 2742.77C996.587 2742.73 996.767 2742.45 996.66 2742.14Z" fill="white"/>
<path d="M1155.39 2734.57C1155.28 2734.26 1154.93 2734.03 1154.6 2734.06C1154.27 2734.1 1154.09 2734.38 1154.2 2734.69C1154.3 2735 1154.66 2735.23 1154.99 2735.2C1155.32 2735.16 1155.5 2734.88 1155.39 2734.57Z" fill="white"/>
<path d="M281.011 2496.18C280.695 2496.08 280.289 2496.22 280.103 2496.5C279.917 2496.77 280.022 2497.08 280.337 2497.18C280.653 2497.28 281.059 2497.14 281.245 2496.87C281.431 2496.59 281.326 2496.29 281.011 2496.18Z" fill="white"/>
<path d="M601.378 2728.36C601.063 2728.26 600.656 2728.4 600.47 2728.67C600.285 2728.95 600.389 2729.25 600.704 2729.35C601.02 2729.46 601.426 2729.32 601.612 2729.04C601.798 2728.77 601.693 2728.46 601.378 2728.36Z" fill="white"/>
<path d="M250.244 2515.39C249.928 2515.28 249.522 2515.42 249.336 2515.7C249.15 2515.97 249.255 2516.28 249.57 2516.38C249.886 2516.48 250.292 2516.34 250.478 2516.07C250.664 2515.79 250.559 2515.49 250.244 2515.39Z" fill="white"/>
<path d="M1553.88 2743.13C1553.57 2743.02 1553.16 2743.16 1552.98 2743.44C1552.79 2743.71 1552.89 2744.02 1553.21 2744.12C1553.52 2744.22 1553.93 2744.08 1554.12 2743.81C1554.3 2743.53 1554.2 2743.23 1553.88 2743.13Z" fill="white"/>
<path d="M322.244 2702.18C321.928 2702.08 321.522 2702.22 321.336 2702.5C321.15 2702.77 321.255 2703.08 321.57 2703.18C321.886 2703.28 322.292 2703.14 322.478 2702.87C322.664 2702.59 322.559 2702.29 322.244 2702.18Z" fill="white"/>
<path d="M1504.24 2555.18C1503.93 2555.08 1503.52 2555.22 1503.34 2555.5C1503.15 2555.77 1503.25 2556.08 1503.57 2556.18C1503.88 2556.28 1504.29 2556.14 1504.48 2555.87C1504.66 2555.59 1504.56 2555.29 1504.24 2555.18Z" fill="white"/>
<path d="M1140.65 2674.35C1140.34 2674.25 1139.93 2674.39 1139.75 2674.66C1139.56 2674.93 1139.66 2675.24 1139.98 2675.34C1140.29 2675.44 1140.7 2675.3 1140.89 2675.03C1141.07 2674.76 1140.97 2674.45 1140.65 2674.35Z" fill="white"/>
<path d="M108.244 2622.18C107.928 2622.08 107.522 2622.22 107.336 2622.5C107.15 2622.77 107.255 2623.08 107.57 2623.18C107.886 2623.28 108.292 2623.14 108.478 2622.87C108.664 2622.59 108.559 2622.29 108.244 2622.18Z" fill="white"/>
<path d="M1285.24 2452.18C1284.93 2452.08 1284.52 2452.22 1284.34 2452.5C1284.15 2452.77 1284.25 2453.08 1284.57 2453.18C1284.88 2453.28 1285.29 2453.14 1285.48 2452.87C1285.66 2452.59 1285.56 2452.29 1285.24 2452.18Z" fill="white"/>
<path d="M1372.19 2681.04C1371.88 2680.93 1371.47 2681.07 1371.29 2681.35C1371.1 2681.62 1371.2 2681.93 1371.52 2682.03C1371.83 2682.13 1372.24 2681.99 1372.43 2681.72C1372.61 2681.44 1372.51 2681.14 1372.19 2681.04Z" fill="white"/>
<path d="M630.828 2623.18C630.512 2623.08 630.106 2623.22 629.92 2623.5C629.734 2623.77 629.839 2624.08 630.154 2624.18C630.47 2624.28 630.876 2624.14 631.062 2623.87C631.247 2623.59 631.143 2623.29 630.828 2623.18Z" fill="white"/>
<path d="M696.244 2470.18C695.928 2470.08 695.522 2470.22 695.336 2470.5C695.15 2470.77 695.255 2471.08 695.57 2471.18C695.886 2471.28 696.292 2471.14 696.478 2470.87C696.664 2470.59 696.559 2470.29 696.244 2470.18Z" fill="white"/>
<path d="M1343.41 2451.93C1343.1 2451.82 1342.69 2451.96 1342.51 2452.24C1342.32 2452.51 1342.42 2452.82 1342.74 2452.92C1343.05 2453.02 1343.46 2452.88 1343.65 2452.61C1343.83 2452.33 1343.73 2452.03 1343.41 2451.93Z" fill="white"/>
<path d="M320.244 2549.18C319.928 2549.08 319.522 2549.22 319.336 2549.5C319.15 2549.77 319.255 2550.08 319.57 2550.18C319.886 2550.28 320.292 2550.14 320.478 2549.87C320.664 2549.59 320.559 2549.29 320.244 2549.18Z" fill="white"/>
<path d="M1086.64 2484.74C1086.33 2484.63 1085.92 2484.77 1085.74 2485.05C1085.55 2485.32 1085.65 2485.63 1085.97 2485.73C1086.28 2485.83 1086.69 2485.69 1086.88 2485.42C1087.06 2485.14 1086.96 2484.84 1086.64 2484.74Z" fill="white"/>
<path d="M1307.64 2657.97C1307.32 2658.06 1307.23 2658.35 1307.43 2658.61C1307.63 2658.87 1308.06 2659.01 1308.37 2658.92C1308.69 2658.82 1308.79 2658.53 1308.58 2658.27C1308.38 2658.01 1307.96 2657.87 1307.64 2657.97Z" fill="white"/>
<path d="M1326.35 2636.45C1326.03 2636.54 1325.94 2636.83 1326.14 2637.09C1326.34 2637.35 1326.77 2637.49 1327.08 2637.39C1327.4 2637.3 1327.5 2637.01 1327.29 2636.75C1327.09 2636.49 1326.67 2636.35 1326.35 2636.45Z" fill="white"/>
<path d="M1468.67 2381.63C1468.35 2381.72 1468.26 2382.01 1468.46 2382.27C1468.66 2382.53 1469.09 2382.67 1469.4 2382.58C1469.72 2382.48 1469.82 2382.19 1469.61 2381.93C1469.41 2381.67 1468.99 2381.53 1468.67 2381.63Z" fill="white"/>
<path d="M585.575 2637.71C585.258 2637.81 585.165 2638.09 585.368 2638.36C585.572 2638.62 585.994 2638.75 586.312 2638.66C586.629 2638.56 586.722 2638.28 586.519 2638.01C586.315 2637.75 585.893 2637.62 585.575 2637.71Z" fill="white"/>
<path d="M428.733 1636.35C429.022 1636.51 429.468 1636.47 429.729 1636.27C429.99 1636.07 429.967 1635.77 429.678 1635.61C429.389 1635.45 428.942 1635.48 428.681 1635.69C428.42 1635.89 428.443 1636.19 428.733 1636.35Z" fill="white"/>
<path d="M264.781 1532.29C265.111 1532.26 265.291 1531.98 265.184 1531.67C265.078 1531.35 264.724 1531.13 264.394 1531.16C264.064 1531.19 263.884 1531.47 263.991 1531.79C264.097 1532.1 264.451 1532.33 264.781 1532.29Z" fill="white"/>
<path d="M440.984 1743.2C441.314 1743.16 441.494 1742.88 441.387 1742.57C441.281 1742.25 440.927 1742.03 440.597 1742.06C440.267 1742.09 440.087 1742.38 440.194 1742.69C440.3 1743 440.654 1743.23 440.984 1743.2Z" fill="white"/>
<path d="M411.388 1800C411.718 1799.97 411.898 1799.69 411.791 1799.37C411.685 1799.06 411.331 1798.83 411.001 1798.87C410.671 1798.9 410.491 1799.18 410.598 1799.49C410.704 1799.81 411.058 1800.03 411.388 1800Z" fill="white"/>
<path d="M576.984 1606.2C577.314 1606.16 577.494 1605.88 577.387 1605.57C577.281 1605.25 576.927 1605.03 576.597 1605.06C576.267 1605.09 576.087 1605.38 576.194 1605.69C576.3 1606 576.654 1606.23 576.984 1606.2Z" fill="white"/>
<path d="M962.949 2063.81C962.969 2063.48 962.718 2063.19 962.387 2063.17C962.057 2063.14 961.772 2063.39 961.752 2063.72C961.732 2064.05 961.983 2064.34 962.314 2064.36C962.644 2064.39 962.928 2064.14 962.949 2063.81Z" fill="white"/>
<path d="M543.891 1741.63C543.997 1741.94 544.351 1742.17 544.681 1742.13C545.011 1742.1 545.191 1741.82 545.085 1741.51C544.978 1741.19 544.624 1740.96 544.294 1741C543.964 1741.03 543.784 1741.31 543.891 1741.63Z" fill="white"/>
<path d="M1244.01 1775.36C1244.12 1775.67 1244.47 1775.9 1244.8 1775.86C1245.13 1775.83 1245.31 1775.55 1245.2 1775.24C1245.1 1774.92 1244.74 1774.69 1244.41 1774.73C1244.08 1774.76 1243.9 1775.04 1244.01 1775.36Z" fill="white"/>
<path d="M988.111 1633.5C988.218 1633.81 988.571 1634.04 988.901 1634.01C989.231 1633.97 989.412 1633.69 989.305 1633.38C989.198 1633.06 988.844 1632.84 988.514 1632.87C988.184 1632.9 988.004 1633.18 988.111 1633.5Z" fill="white"/>
<path d="M973.557 1622.9C973.663 1623.21 974.017 1623.44 974.347 1623.41C974.677 1623.37 974.857 1623.09 974.751 1622.78C974.644 1622.47 974.29 1622.24 973.96 1622.27C973.63 1622.3 973.45 1622.59 973.557 1622.9Z" fill="white"/>
<path d="M860.078 1721.04C860.184 1721.35 860.538 1721.58 860.868 1721.55C861.198 1721.51 861.378 1721.23 861.272 1720.92C861.165 1720.61 860.811 1720.38 860.481 1720.41C860.151 1720.45 859.971 1720.73 860.078 1721.04Z" fill="white"/>
<path d="M815.387 1973.57C815.28 1973.26 814.927 1973.03 814.597 1973.06C814.267 1973.1 814.087 1973.38 814.193 1973.69C814.3 1974 814.654 1974.23 814.984 1974.2C815.314 1974.16 815.494 1973.88 815.387 1973.57Z" fill="white"/>
<path d="M996.66 2012.14C996.553 2011.83 996.2 2011.6 995.87 2011.63C995.54 2011.67 995.359 2011.95 995.466 2012.26C995.573 2012.57 995.927 2012.8 996.257 2012.77C996.587 2012.73 996.767 2012.45 996.66 2012.14Z" fill="white"/>
<path d="M1155.39 2004.57C1155.28 2004.26 1154.93 2004.03 1154.6 2004.06C1154.27 2004.1 1154.09 2004.38 1154.2 2004.69C1154.3 2005 1154.66 2005.23 1154.99 2005.2C1155.32 2005.16 1155.5 2004.88 1155.39 2004.57Z" fill="white"/>
<path d="M281.011 1766.18C280.695 1766.08 280.289 1766.22 280.103 1766.5C279.917 1766.77 280.022 1767.08 280.337 1767.18C280.653 1767.28 281.059 1767.14 281.245 1766.87C281.431 1766.59 281.326 1766.29 281.011 1766.18Z" fill="white"/>
<path d="M601.378 1998.36C601.063 1998.26 600.656 1998.4 600.47 1998.67C600.285 1998.95 600.389 1999.25 600.704 1999.35C601.02 1999.46 601.426 1999.32 601.612 1999.04C601.798 1998.77 601.693 1998.46 601.378 1998.36Z" fill="white"/>
<path d="M250.244 1785.39C249.928 1785.28 249.522 1785.42 249.336 1785.7C249.15 1785.97 249.255 1786.28 249.57 1786.38C249.886 1786.48 250.292 1786.34 250.478 1786.07C250.664 1785.79 250.559 1785.49 250.244 1785.39Z" fill="white"/>
<path d="M1553.88 2013.13C1553.57 2013.02 1553.16 2013.16 1552.98 2013.44C1552.79 2013.71 1552.89 2014.02 1553.21 2014.12C1553.52 2014.22 1553.93 2014.08 1554.12 2013.81C1554.3 2013.53 1554.2 2013.23 1553.88 2013.13Z" fill="white"/>
<path d="M322.244 1972.18C321.928 1972.08 321.522 1972.22 321.336 1972.5C321.15 1972.77 321.255 1973.08 321.57 1973.18C321.886 1973.28 322.292 1973.14 322.478 1972.87C322.664 1972.59 322.559 1972.29 322.244 1972.18Z" fill="white"/>
<path d="M1504.24 1825.18C1503.93 1825.08 1503.52 1825.22 1503.34 1825.5C1503.15 1825.77 1503.25 1826.08 1503.57 1826.18C1503.88 1826.28 1504.29 1826.14 1504.48 1825.87C1504.66 1825.59 1504.56 1825.29 1504.24 1825.18Z" fill="white"/>
<path d="M1140.65 1944.35C1140.34 1944.25 1139.93 1944.39 1139.75 1944.66C1139.56 1944.93 1139.66 1945.24 1139.98 1945.34C1140.29 1945.44 1140.7 1945.3 1140.89 1945.03C1141.07 1944.76 1140.97 1944.45 1140.65 1944.35Z" fill="white"/>
<path d="M108.244 1892.18C107.928 1892.08 107.522 1892.22 107.336 1892.5C107.15 1892.77 107.255 1893.08 107.57 1893.18C107.886 1893.28 108.292 1893.14 108.478 1892.87C108.664 1892.59 108.559 1892.29 108.244 1892.18Z" fill="white"/>
<path d="M1285.24 1722.18C1284.93 1722.08 1284.52 1722.22 1284.34 1722.5C1284.15 1722.77 1284.25 1723.08 1284.57 1723.18C1284.88 1723.28 1285.29 1723.14 1285.48 1722.87C1285.66 1722.59 1285.56 1722.29 1285.24 1722.18Z" fill="white"/>
<path d="M1372.19 1951.04C1371.88 1950.93 1371.47 1951.07 1371.29 1951.35C1371.1 1951.62 1371.2 1951.93 1371.52 1952.03C1371.83 1952.13 1372.24 1951.99 1372.43 1951.72C1372.61 1951.44 1372.51 1951.14 1372.19 1951.04Z" fill="white"/>
<path d="M630.828 1893.18C630.512 1893.08 630.106 1893.22 629.92 1893.5C629.734 1893.77 629.839 1894.08 630.154 1894.18C630.47 1894.28 630.876 1894.14 631.062 1893.87C631.247 1893.59 631.143 1893.29 630.828 1893.18Z" fill="white"/>
<path d="M696.244 1740.18C695.928 1740.08 695.522 1740.22 695.336 1740.5C695.15 1740.77 695.255 1741.08 695.57 1741.18C695.886 1741.28 696.292 1741.14 696.478 1740.87C696.664 1740.59 696.559 1740.29 696.244 1740.18Z" fill="white"/>
<path d="M1343.41 1721.93C1343.1 1721.82 1342.69 1721.96 1342.51 1722.24C1342.32 1722.51 1342.42 1722.82 1342.74 1722.92C1343.05 1723.02 1343.46 1722.88 1343.65 1722.61C1343.83 1722.33 1343.73 1722.03 1343.41 1721.93Z" fill="white"/>
<path d="M320.244 1819.18C319.928 1819.08 319.522 1819.22 319.336 1819.5C319.15 1819.77 319.255 1820.08 319.57 1820.18C319.886 1820.28 320.292 1820.14 320.478 1819.87C320.664 1819.59 320.559 1819.29 320.244 1819.18Z" fill="white"/>
<path d="M1086.64 1754.74C1086.33 1754.63 1085.92 1754.77 1085.74 1755.05C1085.55 1755.32 1085.65 1755.63 1085.97 1755.73C1086.28 1755.83 1086.69 1755.69 1086.88 1755.42C1087.06 1755.14 1086.96 1754.84 1086.64 1754.74Z" fill="white"/>
<path d="M1307.64 1927.97C1307.32 1928.06 1307.23 1928.35 1307.43 1928.61C1307.63 1928.87 1308.06 1929.01 1308.37 1928.92C1308.69 1928.82 1308.79 1928.53 1308.58 1928.27C1308.38 1928.01 1307.96 1927.87 1307.64 1927.97Z" fill="white"/>
<path d="M1326.35 1906.45C1326.03 1906.54 1325.94 1906.83 1326.14 1907.09C1326.34 1907.35 1326.77 1907.49 1327.08 1907.39C1327.4 1907.3 1327.5 1907.01 1327.29 1906.75C1327.09 1906.49 1326.67 1906.35 1326.35 1906.45Z" fill="white"/>
<path d="M1468.67 1651.63C1468.35 1651.72 1468.26 1652.01 1468.46 1652.27C1468.66 1652.53 1469.09 1652.67 1469.4 1652.58C1469.72 1652.48 1469.82 1652.19 1469.61 1651.93C1469.41 1651.67 1468.99 1651.53 1468.67 1651.63Z" fill="white"/>
<path d="M585.575 1907.71C585.258 1907.81 585.165 1908.09 585.368 1908.36C585.572 1908.62 585.994 1908.75 586.312 1908.66C586.629 1908.56 586.722 1908.28 586.519 1908.01C586.315 1907.75 585.893 1907.62 585.575 1907.71Z" fill="white"/>
<path d="M428.733 906.348C429.022 906.51 429.468 906.475 429.729 906.271C429.99 906.067 429.967 905.77 429.678 905.609C429.389 905.447 428.942 905.482 428.681 905.686C428.42 905.89 428.443 906.187 428.733 906.348Z" fill="white"/>
<path d="M264.781 802.294C265.111 802.261 265.291 801.98 265.184 801.666C265.078 801.353 264.724 801.125 264.394 801.159C264.064 801.192 263.884 801.473 263.991 801.787C264.097 802.1 264.451 802.328 264.781 802.294Z" fill="white"/>
<path d="M440.984 1013.2C441.314 1013.16 441.494 1012.88 441.387 1012.57C441.281 1012.25 440.927 1012.03 440.597 1012.06C440.267 1012.09 440.087 1012.38 440.194 1012.69C440.3 1013 440.654 1013.23 440.984 1013.2Z" fill="white"/>
<path d="M411.388 1070C411.718 1069.97 411.898 1069.69 411.791 1069.37C411.685 1069.06 411.331 1068.83 411.001 1068.87C410.671 1068.9 410.491 1069.18 410.598 1069.49C410.704 1069.81 411.058 1070.03 411.388 1070Z" fill="white"/>
<path d="M576.984 876.197C577.314 876.163 577.494 875.882 577.387 875.568C577.281 875.255 576.927 875.027 576.597 875.061C576.267 875.094 576.087 875.375 576.194 875.689C576.3 876.003 576.654 876.23 576.984 876.197Z" fill="white"/>
<path d="M962.949 1333.81C962.969 1333.48 962.718 1333.19 962.387 1333.17C962.057 1333.14 961.772 1333.39 961.752 1333.72C961.732 1334.05 961.983 1334.34 962.314 1334.36C962.644 1334.39 962.928 1334.14 962.949 1333.81Z" fill="white"/>
<path d="M543.891 1011.63C543.997 1011.94 544.351 1012.17 544.681 1012.13C545.011 1012.1 545.191 1011.82 545.085 1011.51C544.978 1011.19 544.624 1010.96 544.294 1011C543.964 1011.03 543.784 1011.31 543.891 1011.63Z" fill="white"/>
<path d="M1244.01 1045.36C1244.12 1045.67 1244.47 1045.9 1244.8 1045.86C1245.13 1045.83 1245.31 1045.55 1245.2 1045.24C1245.1 1044.92 1244.74 1044.69 1244.41 1044.73C1244.08 1044.76 1243.9 1045.04 1244.01 1045.36Z" fill="white"/>
<path d="M988.111 903.497C988.218 903.811 988.571 904.038 988.901 904.005C989.231 903.972 989.412 903.691 989.305 903.377C989.198 903.063 988.844 902.836 988.514 902.869C988.184 902.902 988.004 903.184 988.111 903.497Z" fill="white"/>
<path d="M973.557 892.899C973.663 893.213 974.017 893.44 974.347 893.407C974.677 893.374 974.857 893.093 974.751 892.779C974.644 892.465 974.29 892.238 973.96 892.271C973.63 892.304 973.45 892.586 973.557 892.899Z" fill="white"/>
<path d="M860.078 991.04C860.184 991.354 860.538 991.581 860.868 991.548C861.198 991.515 861.378 991.234 861.272 990.92C861.165 990.606 860.811 990.379 860.481 990.412C860.151 990.446 859.971 990.727 860.078 991.04Z" fill="white"/>
<path d="M815.387 1243.57C815.28 1243.26 814.927 1243.03 814.597 1243.06C814.267 1243.1 814.087 1243.38 814.193 1243.69C814.3 1244 814.654 1244.23 814.984 1244.2C815.314 1244.16 815.494 1243.88 815.387 1243.57Z" fill="white"/>
<path d="M996.66 1282.14C996.553 1281.83 996.2 1281.6 995.87 1281.63C995.54 1281.67 995.359 1281.95 995.466 1282.26C995.573 1282.57 995.927 1282.8 996.257 1282.77C996.587 1282.73 996.767 1282.45 996.66 1282.14Z" fill="white"/>
<path d="M1155.39 1274.57C1155.28 1274.26 1154.93 1274.03 1154.6 1274.06C1154.27 1274.1 1154.09 1274.38 1154.2 1274.69C1154.3 1275 1154.66 1275.23 1154.99 1275.2C1155.32 1275.16 1155.5 1274.88 1155.39 1274.57Z" fill="white"/>
<path d="M281.011 1036.18C280.695 1036.08 280.289 1036.22 280.103 1036.5C279.917 1036.77 280.022 1037.08 280.337 1037.18C280.653 1037.28 281.059 1037.14 281.245 1036.87C281.431 1036.59 281.326 1036.29 281.011 1036.18Z" fill="white"/>
<path d="M601.378 1268.36C601.063 1268.26 600.656 1268.4 600.47 1268.67C600.285 1268.95 600.389 1269.25 600.704 1269.35C601.02 1269.46 601.426 1269.32 601.612 1269.04C601.798 1268.77 601.693 1268.46 601.378 1268.36Z" fill="white"/>
<path d="M250.244 1055.39C249.928 1055.28 249.522 1055.42 249.336 1055.7C249.15 1055.97 249.255 1056.28 249.57 1056.38C249.886 1056.48 250.292 1056.34 250.478 1056.07C250.664 1055.8 250.559 1055.49 250.244 1055.39Z" fill="white"/>
<path d="M1553.88 1283.13C1553.57 1283.02 1553.16 1283.16 1552.98 1283.44C1552.79 1283.71 1552.89 1284.02 1553.21 1284.12C1553.52 1284.22 1553.93 1284.08 1554.12 1283.81C1554.3 1283.53 1554.2 1283.23 1553.88 1283.13Z" fill="white"/>
<path d="M322.244 1242.18C321.928 1242.08 321.522 1242.22 321.336 1242.5C321.15 1242.77 321.255 1243.08 321.57 1243.18C321.886 1243.28 322.292 1243.14 322.478 1242.87C322.664 1242.59 322.559 1242.29 322.244 1242.18Z" fill="white"/>
<path d="M1504.24 1095.18C1503.93 1095.08 1503.52 1095.22 1503.34 1095.5C1503.15 1095.77 1503.25 1096.08 1503.57 1096.18C1503.88 1096.28 1504.29 1096.14 1504.48 1095.87C1504.66 1095.59 1504.56 1095.29 1504.24 1095.18Z" fill="white"/>
<path d="M1140.65 1214.35C1140.34 1214.25 1139.93 1214.38 1139.75 1214.66C1139.56 1214.93 1139.66 1215.24 1139.98 1215.34C1140.29 1215.44 1140.7 1215.3 1140.89 1215.03C1141.07 1214.76 1140.97 1214.45 1140.65 1214.35Z" fill="white"/>
<path d="M108.244 1162.18C107.928 1162.08 107.522 1162.22 107.336 1162.5C107.15 1162.77 107.255 1163.08 107.57 1163.18C107.886 1163.28 108.292 1163.14 108.478 1162.87C108.664 1162.59 108.559 1162.29 108.244 1162.18Z" fill="white"/>
<path d="M1285.24 992.184C1284.93 992.082 1284.52 992.221 1284.34 992.495C1284.15 992.77 1284.25 993.075 1284.57 993.178C1284.88 993.28 1285.29 993.141 1285.48 992.866C1285.66 992.592 1285.56 992.287 1285.24 992.184Z" fill="white"/>
<path d="M1372.19 1221.04C1371.88 1220.93 1371.47 1221.07 1371.29 1221.35C1371.1 1221.62 1371.2 1221.93 1371.52 1222.03C1371.83 1222.13 1372.24 1221.99 1372.43 1221.72C1372.61 1221.44 1372.51 1221.14 1372.19 1221.04Z" fill="white"/>
<path d="M630.828 1163.18C630.512 1163.08 630.106 1163.22 629.92 1163.5C629.734 1163.77 629.839 1164.08 630.154 1164.18C630.47 1164.28 630.876 1164.14 631.062 1163.87C631.247 1163.59 631.143 1163.29 630.828 1163.18Z" fill="white"/>
<path d="M696.244 1010.18C695.928 1010.08 695.522 1010.22 695.336 1010.5C695.15 1010.77 695.255 1011.08 695.57 1011.18C695.886 1011.28 696.292 1011.14 696.478 1010.87C696.664 1010.59 696.559 1010.29 696.244 1010.18Z" fill="white"/>
<path d="M1343.41 991.926C1343.1 991.824 1342.69 991.963 1342.51 992.237C1342.32 992.512 1342.42 992.817 1342.74 992.919C1343.05 993.022 1343.46 992.883 1343.65 992.608C1343.83 992.334 1343.73 992.029 1343.41 991.926Z" fill="white"/>
<path d="M320.244 1089.18C319.928 1089.08 319.522 1089.22 319.336 1089.5C319.15 1089.77 319.255 1090.08 319.57 1090.18C319.886 1090.28 320.292 1090.14 320.478 1089.87C320.664 1089.59 320.559 1089.29 320.244 1089.18Z" fill="white"/>
<path d="M1086.64 1024.74C1086.33 1024.63 1085.92 1024.77 1085.74 1025.05C1085.55 1025.32 1085.65 1025.63 1085.97 1025.73C1086.28 1025.83 1086.69 1025.69 1086.88 1025.42C1087.06 1025.14 1086.96 1024.84 1086.64 1024.74Z" fill="white"/>
<path d="M1307.64 1197.97C1307.32 1198.06 1307.23 1198.35 1307.43 1198.61C1307.63 1198.87 1308.06 1199.01 1308.37 1198.92C1308.69 1198.82 1308.79 1198.53 1308.58 1198.27C1308.38 1198.01 1307.96 1197.87 1307.64 1197.97Z" fill="white"/>
<path d="M1326.35 1176.45C1326.03 1176.54 1325.94 1176.83 1326.14 1177.09C1326.34 1177.35 1326.77 1177.49 1327.08 1177.39C1327.4 1177.3 1327.5 1177.01 1327.29 1176.75C1327.09 1176.49 1326.67 1176.35 1326.35 1176.45Z" fill="white"/>
<path d="M1468.67 921.629C1468.35 921.723 1468.26 922.011 1468.46 922.273C1468.66 922.535 1469.09 922.671 1469.4 922.576C1469.72 922.482 1469.82 922.194 1469.61 921.932C1469.41 921.671 1468.99 921.535 1468.67 921.629Z" fill="white"/>
<path d="M585.575 1177.71C585.258 1177.81 585.165 1178.09 585.368 1178.36C585.572 1178.62 585.994 1178.75 586.312 1178.66C586.629 1178.56 586.722 1178.28 586.519 1178.01C586.315 1177.75 585.893 1177.62 585.575 1177.71Z" fill="white"/>
<path d="M428.733 176.348C429.022 176.51 429.468 176.475 429.729 176.271C429.99 176.067 429.967 175.77 429.678 175.609C429.389 175.447 428.942 175.482 428.681 175.686C428.42 175.89 428.443 176.186 428.733 176.348Z" fill="white"/>
<path d="M264.781 72.2944C265.111 72.2612 265.291 71.9799 265.184 71.6663C265.078 71.3526 264.724 71.1253 264.394 71.1586C264.064 71.1918 263.884 71.4731 263.991 71.7867C264.097 72.1004 264.451 72.3277 264.781 72.2944Z" fill="white"/>
<path d="M440.984 283.197C441.314 283.163 441.494 282.882 441.387 282.568C441.281 282.255 440.927 282.027 440.597 282.061C440.267 282.094 440.087 282.375 440.194 282.689C440.3 283.003 440.654 283.23 440.984 283.197Z" fill="white"/>
<path d="M411.388 340.002C411.718 339.968 411.898 339.687 411.791 339.373C411.685 339.06 411.331 338.833 411.001 338.866C410.671 338.899 410.491 339.18 410.598 339.494C410.704 339.808 411.058 340.035 411.388 340.002Z" fill="white"/>
<path d="M576.984 146.197C577.314 146.163 577.494 145.882 577.387 145.568C577.281 145.255 576.927 145.027 576.597 145.061C576.267 145.094 576.087 145.375 576.194 145.689C576.3 146.003 576.654 146.23 576.984 146.197Z" fill="white"/>
<path d="M962.949 603.808C962.969 603.477 962.718 603.189 962.387 603.165C962.057 603.142 961.772 603.39 961.752 603.721C961.732 604.052 961.983 604.339 962.314 604.363C962.644 604.387 962.928 604.138 962.949 603.808Z" fill="white"/>
<path d="M543.891 281.626C543.997 281.94 544.351 282.167 544.681 282.134C545.011 282.101 545.191 281.82 545.085 281.506C544.978 281.192 544.624 280.965 544.294 280.998C543.964 281.031 543.784 281.313 543.891 281.626Z" fill="white"/>
<path d="M1244.01 315.356C1244.12 315.67 1244.47 315.897 1244.8 315.864C1245.13 315.831 1245.31 315.55 1245.2 315.236C1245.1 314.922 1244.74 314.695 1244.41 314.728C1244.08 314.761 1243.9 315.043 1244.01 315.356Z" fill="white"/>
<path d="M988.111 173.497C988.218 173.811 988.571 174.038 988.901 174.005C989.231 173.972 989.412 173.691 989.305 173.377C989.198 173.063 988.844 172.836 988.514 172.869C988.184 172.903 988.004 173.184 988.111 173.497Z" fill="white"/>
<path d="M973.557 162.899C973.663 163.213 974.017 163.44 974.347 163.407C974.677 163.374 974.857 163.093 974.751 162.779C974.644 162.465 974.29 162.238 973.96 162.271C973.63 162.305 973.45 162.586 973.557 162.899Z" fill="white"/>
<path d="M860.078 261.04C860.184 261.354 860.538 261.581 860.868 261.548C861.198 261.515 861.378 261.234 861.272 260.92C861.165 260.606 860.811 260.379 860.481 260.412C860.151 260.445 859.971 260.727 860.078 261.04Z" fill="white"/>
<path d="M815.387 513.57C815.28 513.256 814.927 513.029 814.597 513.062C814.267 513.095 814.087 513.376 814.193 513.69C814.3 514.004 814.654 514.231 814.984 514.198C815.314 514.165 815.494 513.883 815.387 513.57Z" fill="white"/>
<path d="M996.66 552.14C996.553 551.826 996.2 551.599 995.87 551.632C995.54 551.665 995.359 551.946 995.466 552.26C995.573 552.574 995.927 552.801 996.257 552.768C996.587 552.734 996.767 552.453 996.66 552.14Z" fill="white"/>
<path d="M1155.39 544.57C1155.28 544.256 1154.93 544.029 1154.6 544.062C1154.27 544.095 1154.09 544.376 1154.2 544.69C1154.3 545.004 1154.66 545.231 1154.99 545.198C1155.32 545.165 1155.5 544.883 1155.39 544.57Z" fill="white"/>
<path d="M281.011 306.184C280.695 306.082 280.289 306.221 280.103 306.495C279.917 306.77 280.022 307.075 280.337 307.178C280.653 307.28 281.059 307.141 281.245 306.866C281.431 306.592 281.326 306.287 281.011 306.184Z" fill="white"/>
<path d="M601.378 538.36C601.063 538.258 600.656 538.397 600.47 538.671C600.285 538.946 600.389 539.251 600.704 539.354C601.02 539.456 601.426 539.317 601.612 539.042C601.798 538.768 601.693 538.463 601.378 538.36Z" fill="white"/>
<path d="M250.244 325.387C249.928 325.285 249.522 325.424 249.336 325.698C249.15 325.973 249.255 326.278 249.57 326.381C249.886 326.483 250.292 326.344 250.478 326.069C250.664 325.795 250.559 325.49 250.244 325.387Z" fill="white"/>
<path d="M1553.88 553.126C1553.57 553.024 1553.16 553.163 1552.98 553.437C1552.79 553.712 1552.89 554.017 1553.21 554.119C1553.52 554.222 1553.93 554.083 1554.12 553.808C1554.3 553.534 1554.2 553.229 1553.88 553.126Z" fill="white"/>
<path d="M322.244 512.184C321.928 512.082 321.522 512.221 321.336 512.495C321.15 512.77 321.255 513.075 321.57 513.178C321.886 513.28 322.292 513.141 322.478 512.866C322.664 512.592 322.559 512.287 322.244 512.184Z" fill="white"/>
<path d="M1504.24 365.184C1503.93 365.082 1503.52 365.221 1503.34 365.495C1503.15 365.77 1503.25 366.075 1503.57 366.178C1503.88 366.28 1504.29 366.141 1504.48 365.866C1504.66 365.592 1504.56 365.287 1504.24 365.184Z" fill="white"/>
<path d="M1140.65 484.348C1140.34 484.246 1139.93 484.385 1139.75 484.659C1139.56 484.934 1139.66 485.239 1139.98 485.341C1140.29 485.444 1140.7 485.305 1140.89 485.03C1141.07 484.756 1140.97 484.451 1140.65 484.348Z" fill="white"/>
<path d="M108.244 432.184C107.928 432.082 107.522 432.221 107.336 432.495C107.15 432.77 107.255 433.075 107.57 433.178C107.886 433.28 108.292 433.141 108.478 432.866C108.664 432.592 108.559 432.287 108.244 432.184Z" fill="white"/>
<path d="M1285.24 262.184C1284.93 262.082 1284.52 262.221 1284.34 262.495C1284.15 262.77 1284.25 263.075 1284.57 263.178C1284.88 263.28 1285.29 263.141 1285.48 262.866C1285.66 262.592 1285.56 262.287 1285.24 262.184Z" fill="white"/>
<path d="M1372.19 491.036C1371.88 490.934 1371.47 491.073 1371.29 491.347C1371.1 491.622 1371.2 491.927 1371.52 492.029C1371.83 492.132 1372.24 491.993 1372.43 491.718C1372.61 491.444 1372.51 491.139 1372.19 491.036Z" fill="white"/>
<path d="M630.828 433.184C630.512 433.082 630.106 433.221 629.92 433.495C629.734 433.77 629.839 434.075 630.154 434.178C630.47 434.28 630.876 434.141 631.062 433.866C631.247 433.592 631.143 433.287 630.828 433.184Z" fill="white"/>
<path d="M696.244 280.184C695.928 280.082 695.522 280.221 695.336 280.495C695.15 280.77 695.255 281.075 695.57 281.178C695.886 281.28 696.292 281.141 696.478 280.866C696.664 280.592 696.559 280.287 696.244 280.184Z" fill="white"/>
<path d="M1343.41 261.926C1343.1 261.824 1342.69 261.963 1342.51 262.237C1342.32 262.512 1342.42 262.817 1342.74 262.919C1343.05 263.022 1343.46 262.883 1343.65 262.608C1343.83 262.334 1343.73 262.029 1343.41 261.926Z" fill="white"/>
<path d="M320.244 359.184C319.928 359.082 319.522 359.221 319.336 359.495C319.15 359.77 319.255 360.075 319.57 360.178C319.886 360.28 320.292 360.141 320.478 359.866C320.664 359.592 320.559 359.287 320.244 359.184Z" fill="white"/>
<path d="M1086.64 294.735C1086.33 294.633 1085.92 294.772 1085.74 295.046C1085.55 295.321 1085.65 295.626 1085.97 295.729C1086.28 295.831 1086.69 295.692 1086.88 295.417C1087.06 295.143 1086.96 294.838 1086.64 294.735Z" fill="white"/>
<path d="M1307.64 467.969C1307.32 468.063 1307.23 468.351 1307.43 468.613C1307.63 468.875 1308.06 469.01 1308.37 468.916C1308.69 468.822 1308.79 468.534 1308.58 468.272C1308.38 468.011 1307.96 467.875 1307.64 467.969Z" fill="white"/>
<path d="M1326.35 446.446C1326.03 446.54 1325.94 446.828 1326.14 447.09C1326.34 447.352 1326.77 447.488 1327.08 447.393C1327.4 447.299 1327.5 447.011 1327.29 446.749C1327.09 446.488 1326.67 446.352 1326.35 446.446Z" fill="white"/>
<path d="M1468.67 191.629C1468.35 191.723 1468.26 192.011 1468.46 192.273C1468.66 192.535 1469.09 192.671 1469.4 192.576C1469.72 192.482 1469.82 192.194 1469.61 191.932C1469.41 191.671 1468.99 191.535 1468.67 191.629Z" fill="white"/>
<path d="M585.575 447.711C585.258 447.805 585.165 448.093 585.368 448.355C585.572 448.617 585.994 448.753 586.312 448.658C586.629 448.564 586.722 448.276 586.519 448.014C586.315 447.753 585.893 447.617 585.575 447.711Z" fill="white"/>
</svg>
